<svg width="21" height="21" viewBox="0 0 21 21" fill="none" xmlns="http://www.w3.org/2000/svg">
<path d="M11.3883 10.732L7.94389 14.1773C7.88235 14.2388 7.79891 14.2733 7.71193 14.2733C7.62495 14.2733 7.54153 14.2387 7.48001 14.1772C7.4185 14.1157 7.38392 14.0323 7.38387 13.9453C7.38383 13.8583 7.41833 13.7749 7.47978 13.7133L10.3642 10.8281H1.96875C1.88173 10.8281 1.79827 10.7936 1.73673 10.732C1.6752 10.6705 1.64062 10.587 1.64062 10.5C1.64062 10.413 1.6752 10.3295 1.73673 10.268C1.79827 10.2064 1.88173 10.1719 1.96875 10.1719H10.3642L7.47978 7.28668C7.44928 7.25622 7.42508 7.22004 7.40857 7.18022C7.39205 7.14039 7.38355 7.09771 7.38354 7.0546C7.38353 7.01149 7.39201 6.9688 7.40851 6.92897C7.425 6.88913 7.44919 6.85295 7.47968 6.82247C7.51016 6.79199 7.54636 6.76781 7.58619 6.75133C7.62603 6.73484 7.66872 6.72637 7.71183 6.72639C7.75494 6.72641 7.79763 6.73492 7.83745 6.75145C7.87726 6.76797 7.91344 6.79218 7.94389 6.82269L11.3883 10.268C11.4188 10.2985 11.4429 10.3346 11.4594 10.3744C11.4759 10.4143 11.4844 10.4569 11.4844 10.5C11.4844 10.5431 11.4759 10.5858 11.4594 10.6256C11.4429 10.6654 11.4188 10.7015 11.3883 10.732ZM15.75 2.95312H11.1562C11.0692 2.95312 10.9858 2.9877 10.9242 3.04923C10.8627 3.11077 10.8281 3.19423 10.8281 3.28125C10.8281 3.36827 10.8627 3.45173 10.9242 3.51327C10.9858 3.5748 11.0692 3.60938 11.1562 3.60938H15.75C15.837 3.60947 15.9204 3.64407 15.9819 3.70558C16.0434 3.7671 16.078 3.8505 16.0781 3.9375V17.0625C16.078 17.1495 16.0434 17.2329 15.9819 17.2944C15.9204 17.3559 15.837 17.3905 15.75 17.3906H11.1562C11.0692 17.3906 10.9858 17.4252 10.9242 17.4867C10.8627 17.5483 10.8281 17.6317 10.8281 17.7188C10.8281 17.8058 10.8627 17.8892 10.9242 17.9508C10.9858 18.0123 11.0692 18.0469 11.1562 18.0469H15.75C16.011 18.0466 16.2612 17.9428 16.4457 17.7582C16.6303 17.5737 16.7341 17.3235 16.7344 17.0625V3.9375C16.7341 3.67652 16.6303 3.42631 16.4457 3.24176C16.2612 3.05722 16.011 2.95342 15.75 2.95312Z" fill="#FF8800"/>
</svg>
