<svg width="29" height="26" viewBox="0 0 29 26" fill="none" xmlns="http://www.w3.org/2000/svg">
<path d="M0.906229 2.36358H28.0938C28.594 2.36358 29 1.83409 29 1.18179C29 0.529399 28.594 0 28.0938 0H0.906229C0.406033 0 0 0.529399 0 1.18179C0 1.83418 0.406033 2.36358 0.906229 2.36358Z" fill="#050505"/>
<path d="M28.0938 11.8182H0.906229C0.405957 11.8182 0 12.3477 0 13C0 13.6523 0.406033 14.1818 0.906229 14.1818H28.0938C28.594 14.1818 29 13.6523 29 13C29 12.3477 28.594 11.8182 28.0938 11.8182Z" fill="#050505"/>
<path d="M28.0938 23.6364H0.906229C0.405957 23.6364 0 24.1659 0 24.8182C0 25.4706 0.406033 26 0.906229 26H28.0938C28.594 26 29 25.4705 29 24.8182C29.0001 24.1658 28.594 23.6364 28.0938 23.6364Z" fill="#050505"/>
</svg>
