<svg width="21" height="21" viewBox="0 0 21 21" fill="none" xmlns="http://www.w3.org/2000/svg">
<g clip-path="url(#clip0_52_4)">
<path d="M20.8027 3.42053C20.7767 3.41187 10.6341 0.0324528 10.6341 0.0324528C10.5433 -0.0108176 10.4567 -0.0108176 10.3659 0.0324528L0.331444 3.33399C0.080476 3.43783 0.0198975 3.65419 0.0198975 3.77967V17.3363C0.0198975 17.5613 0.154036 17.7387 0.331444 17.782L10.2404 20.9494C10.3918 21.0056 10.5562 21.0273 10.7639 20.9494L20.6685 17.782C20.8459 17.6911 20.9801 17.5137 20.9801 17.3363V3.77967C20.9801 3.64553 20.9368 3.51139 20.8027 3.42053ZM10.5 0.967094L19.1065 3.73207L15.8569 4.77489L7.37587 1.98395L10.5 0.967094ZM10.0543 19.9195L0.911268 17.0204V4.41142L10.0543 7.3365V19.9195ZM10.5 6.49705L1.89351 3.77967L5.94794 2.4556L14.3987 5.24654L10.5 6.49705ZM10.9457 19.9195V7.30188L15.4934 5.86098V7.25861L16.3848 6.87783V5.57972L20.0844 4.41142V16.9771H20.0887L10.9457 19.9195Z" fill="#FF8800"/>
</g>
<defs>
<clipPath id="clip0_52_4">
<rect width="21" height="21" fill="white"/>
</clipPath>
</defs>
</svg>
