<svg width="21" height="21" viewBox="0 0 21 21" fill="none" xmlns="http://www.w3.org/2000/svg">
<path d="M0 5.95V18.9906C0 19.9055 0.74445 20.65 1.6597 20.65H19.3406C20.2559 20.65 21.0003 19.9055 21.0003 18.9906V5.95H0ZM5.6 9.1C5.6 9.29355 5.4432 9.45 5.25 9.45C5.0568 9.45 4.9 9.29355 4.9 9.1C4.9 8.3279 5.5279 7.7 6.3 7.7C7.0721 7.7 7.7 8.3279 7.7 9.1C7.7 9.29355 7.5432 9.45 7.35 9.45C7.1568 9.45 7 9.29355 7 9.1C7 8.71395 6.68605 8.4 6.3 8.4C5.91395 8.4 5.6 8.71395 5.6 9.1ZM15.05 11.9C15.05 14.4088 13.0088 16.45 10.5 16.45C7.9912 16.45 5.95 14.4088 5.95 11.9V9.8C5.95 9.60645 6.1068 9.45 6.3 9.45C6.4932 9.45 6.65 9.60645 6.65 9.8V11.9C6.65 14.0227 8.37725 15.75 10.5 15.75C12.6227 15.75 14.35 14.0227 14.35 11.9V9.8C14.35 9.60645 14.5068 9.45 14.7 9.45C14.8932 9.45 15.05 9.60645 15.05 9.8V11.9ZM15.75 9.45C15.5568 9.45 15.4 9.29355 15.4 9.1C15.4 8.71395 15.0861 8.4 14.7 8.4C14.3139 8.4 14 8.71395 14 9.1C14 9.29355 13.8432 9.45 13.65 9.45C13.4568 9.45 13.3 9.29355 13.3 9.1C13.3 8.3279 13.9279 7.7 14.7 7.7C15.4721 7.7 16.1 8.3279 16.1 9.1C16.1 9.29355 15.9432 9.45 15.75 9.45Z" fill="black"/>
<path d="M3.14999 5.6V3.44785L1.42834 5.6H3.14999Z" fill="black"/>
<path d="M17.85 5.6H19.5716L17.85 3.44785V5.6Z" fill="black"/>
<path d="M20.4683 5.6H20.65V0H20.4449L17.969 2.4759L20.4683 5.6Z" fill="black"/>
<path d="M3.03098 2.4759L0.555076 0H0.349976V5.6H0.531626L3.03098 2.4759Z" fill="black"/>
<path d="M18.7551 0.7L19.4551 0H1.54492L2.24492 0.7H18.7551Z" fill="black"/>
</svg>
