<svg width="17" height="21" viewBox="0 0 17 21" fill="none" xmlns="http://www.w3.org/2000/svg">
<path d="M6.1875 7.7C6.1875 7.89355 6.3415 8.05 6.53125 8.05C6.721 8.05 6.875 7.89355 6.875 7.7C6.875 6.9279 6.25831 6.3 5.5 6.3C4.74169 6.3 4.125 6.9279 4.125 7.7C4.125 7.89355 4.279 8.05 4.46875 8.05C4.6585 8.05 4.8125 7.89355 4.8125 7.7C4.8125 7.31395 5.12084 7 5.5 7C5.87916 7 6.1875 7.31395 6.1875 7.7Z" fill="#FF8800"/>
<path d="M11 6.3C10.2417 6.3 9.625 6.9279 9.625 7.7C9.625 7.89355 9.779 8.05 9.96875 8.05C10.1585 8.05 10.3125 7.89355 10.3125 7.7C10.3125 7.31395 10.6208 7 11 7C11.3792 7 11.6875 7.31395 11.6875 7.7C11.6875 7.89355 11.8415 8.05 12.0312 8.05C12.221 8.05 12.375 7.89355 12.375 7.7C12.375 6.9279 11.7583 6.3 11 6.3Z" fill="#FF8800"/>
<path d="M16.1562 4.9V0H0.34375V4.9H0V21H16.5V4.9H16.1562ZM15.2969 4.9L13.5162 2.4829L15.2673 0.7H15.4688V4.9H15.2969ZM3.78125 4.9V2.45C3.78125 2.4416 3.77713 2.4339 3.77644 2.4255C3.77472 2.4031 3.76956 2.3821 3.76406 2.36005C3.76028 2.34535 3.76063 2.3303 3.75478 2.3163C3.75169 2.3086 3.7455 2.30265 3.74206 2.29495C3.73278 2.2757 3.71972 2.25925 3.70666 2.24175C3.69703 2.22915 3.69153 2.2134 3.68019 2.2022L2.20481 0.7H14.2952L12.8198 2.2022C12.8088 2.2134 12.803 2.22915 12.7933 2.24175C12.7803 2.25925 12.7676 2.2757 12.7583 2.29495C12.7545 2.30265 12.7487 2.30825 12.7452 2.3163C12.7394 2.3303 12.7397 2.3457 12.7359 2.36005C12.7301 2.3821 12.7249 2.40275 12.7236 2.4255C12.7229 2.4339 12.7188 2.4416 12.7188 2.45V4.9H3.78125ZM2.0625 4.9L3.09375 3.49965V4.9H2.0625ZM13.4062 3.49965L14.4375 4.9H13.4062V3.49965ZM1.03125 0.7H1.23269L2.98375 2.4829L1.20312 4.9H1.03125V0.7ZM15.8125 20.3H0.6875V5.6H15.8125V20.3Z" fill="#FF8800"/>
<path d="M11 7.35001C10.8102 7.35001 10.6562 7.50646 10.6562 7.70001V9.80001C10.6562 11.1507 9.57687 12.25 8.25 12.25C6.92313 12.25 5.84375 11.1507 5.84375 9.80001V7.70001C5.84375 7.50646 5.68975 7.35001 5.5 7.35001C5.31025 7.35001 5.15625 7.50646 5.15625 7.70001V9.80001C5.15625 11.5371 6.54431 12.95 8.25 12.95C9.95569 12.95 11.3438 11.5371 11.3438 9.80001V7.70001C11.3438 7.50646 11.1898 7.35001 11 7.35001Z" fill="#FF8800"/>
</svg>
