<svg width="23" height="23" viewBox="0 0 23 23" fill="none" xmlns="http://www.w3.org/2000/svg">
<path d="M22.7101 21.3526L16.1111 14.7488C17.412 13.1886 18.1945 11.1948 18.1945 9.01711C18.1945 4.04898 14.1172 0.00942993 9.10196 0.00942993C4.08669 0.00942993 0 4.0537 0 9.02183C0 13.99 4.07726 18.0295 9.09253 18.0295C11.2231 18.0295 13.1839 17.2989 14.7394 16.0781L21.362 22.7007C21.7485 23.0872 22.3236 23.0872 22.7101 22.7007C23.0966 22.3142 23.0966 21.7391 22.7101 21.3526ZM1.93257 9.02183C1.93257 5.11897 5.14725 1.94672 9.09253 1.94672C13.0378 1.94672 16.2525 5.11897 16.2525 9.02183C16.2525 12.9247 13.0378 16.0969 9.09253 16.0969C5.14725 16.0969 1.93257 12.92 1.93257 9.02183Z" fill="#050505"/>
</svg>
